<?xml version="1.0" encoding="UTF-8"?>
<svg xmlns="http://www.w3.org/2000/svg" xmlns:xlink="http://www.w3.org/1999/xlink" width="503.95pt" height="77.35pt" viewBox="0 0 503.95 77.35" version="1.1">
<defs>
<clipPath id="clip1">
  <path d="M 3 69 L 502 69 L 502 77.351563 L 3 77.351563 Z M 3 69 "/>
</clipPath>
<clipPath id="clip2">
  <path d="M 459 0 L 503.949219 0 L 503.949219 55 L 459 55 Z M 459 0 "/>
</clipPath>
</defs>
<g id="surface1">
<g clip-path="url(#clip1)" clip-rule="nonzero">
<path style=" stroke:none;fill-rule:nonzero;fill:rgb(93.299866%,47.799683%,6.298828%);fill-opacity:1;" d="M 3.472656 77.351563 L 501.71875 77.351563 L 501.71875 69.707031 L 3.472656 69.707031 Z M 3.472656 77.351563 "/>
</g>
<path style=" stroke:none;fill-rule:nonzero;fill:rgb(11.399841%,11.399841%,10.598755%);fill-opacity:1;" d="M 74.324219 0 L 62.085938 0 C 58.492188 0 55.132813 1.238281 52.101563 3.671875 C 49.058594 6.117188 47.183594 9.101563 46.527344 12.546875 L 38.546875 54.453125 L 51.320313 54.453125 C 51.910156 54.453125 52.414063 54.023438 52.53125 53.441406 L 56.425781 32.992188 L 67.863281 32.992188 L 63.773438 54.453125 L 76.574219 54.453125 C 77.160156 54.453125 77.667969 54.023438 77.78125 53.441406 L 85.484375 13.011719 C 86.15625 9.503906 85.375 6.417969 83.171875 3.847656 C 80.980469 1.300781 78.007813 0 74.324219 0 M 70.988281 16.339844 L 70.058594 21.820313 L 58.566406 21.820313 L 59.382813 16.894531 C 59.675781 15.371094 60.503906 14.082031 61.910156 12.957031 C 63.335938 11.828125 64.835938 11.269531 66.484375 11.269531 C 68.035156 11.269531 69.214844 11.769531 70.101563 12.777344 C 70.972656 13.773438 71.257813 14.917969 70.988281 16.339844 "/>
<path style=" stroke:none;fill-rule:nonzero;fill:rgb(11.399841%,11.399841%,10.598755%);fill-opacity:1;" d="M 348.472656 0 L 336.234375 0 C 332.640625 0 329.28125 1.238281 326.25 3.671875 C 323.207031 6.117188 321.335938 9.101563 320.675781 12.546875 L 312.695313 54.453125 L 325.46875 54.453125 C 326.058594 54.453125 326.5625 54.023438 326.683594 53.441406 L 330.574219 32.992188 L 342.015625 32.992188 L 337.921875 54.453125 L 350.722656 54.453125 C 351.3125 54.453125 351.820313 54.023438 351.929688 53.441406 L 359.632813 13.011719 C 360.304688 9.503906 359.523438 6.417969 357.320313 3.847656 C 355.128906 1.300781 352.15625 0 348.472656 0 M 345.136719 16.339844 L 344.207031 21.820313 L 332.714844 21.820313 L 333.53125 16.894531 C 333.824219 15.371094 334.652344 14.082031 336.0625 12.957031 C 337.484375 11.828125 338.984375 11.269531 340.632813 11.269531 C 342.183594 11.269531 343.363281 11.769531 344.253906 12.777344 C 345.121094 13.773438 345.40625 14.917969 345.136719 16.339844 "/>
<path style=" stroke:none;fill-rule:nonzero;fill:rgb(11.399841%,11.399841%,10.598755%);fill-opacity:1;" d="M 134.101563 0.972656 L 121.839844 0.972656 L 116.761719 27.527344 L 106.996094 1.480469 C 106.859375 1.183594 106.40625 0.972656 106.011719 0.972656 L 97.109375 0.980469 L 86.914063 54.453125 L 99.539063 54.453125 C 100.121094 54.453125 100.617188 54.03125 100.726563 53.457031 L 105.601563 27.894531 L 115.558594 54.453125 L 124.371094 54.453125 C 124.949219 54.453125 125.449219 54.03125 125.558594 53.457031 L 135.289063 2.421875 C 135.351563 2.0625 135.261719 1.699219 135.03125 1.410156 C 134.804688 1.132813 134.460938 0.972656 134.101563 0.972656 "/>
<path style=" stroke:none;fill-rule:nonzero;fill:rgb(11.399841%,11.399841%,10.598755%);fill-opacity:1;" d="M 171.8125 0.972656 L 146.597656 0.980469 L 136.425781 54.453125 L 162.082031 54.453125 C 165.617188 54.453125 168.917969 53.222656 171.894531 50.820313 C 174.886719 48.414063 176.722656 45.488281 177.367188 42.128906 L 182.769531 13.757813 C 183.433594 10.304688 182.664063 7.273438 180.5 4.75 C 178.351563 2.242188 175.429688 0.972656 171.8125 0.972656 M 168.605469 16.269531 L 164.324219 38.699219 C 164.085938 39.9375 163.40625 41 162.246094 41.949219 C 161.074219 42.894531 159.835938 43.351563 158.445313 43.351563 L 152.097656 43.351563 L 158.0625 12.074219 L 164.882813 12.074219 C 166.164063 12.074219 167.144531 12.484375 167.875 13.316406 C 168.597656 14.148438 168.832031 15.085938 168.605469 16.269531 "/>
<path style=" stroke:none;fill-rule:nonzero;fill:rgb(11.399841%,11.399841%,10.598755%);fill-opacity:1;" d="M 229.105469 1.410156 C 228.875 1.132813 228.53125 0.972656 228.171875 0.972656 L 194.867188 0.980469 L 184.679688 54.449219 L 218.441406 54.449219 C 219.019531 54.449219 219.519531 54.03125 219.632813 53.457031 L 221.289063 44.800781 C 221.351563 44.449219 221.261719 44.078125 221.027344 43.796875 C 220.804688 43.515625 220.464844 43.351563 220.101563 43.351563 L 200.347656 43.351563 L 202.257813 33.375 L 216.523438 33.375 C 217.105469 33.375 217.601563 32.960938 217.710938 32.390625 L 219.398438 23.734375 C 219.464844 23.378906 219.371094 23.003906 219.140625 22.726563 C 218.910156 22.441406 218.570313 22.277344 218.210938 22.277344 L 204.421875 22.277344 L 206.269531 12.070313 L 226.476563 12.070313 C 227.054688 12.070313 227.558594 11.660156 227.671875 11.082031 L 229.359375 2.421875 C 229.425781 2.058594 229.335938 1.699219 229.105469 1.410156 "/>
<path style=" stroke:none;fill-rule:nonzero;fill:rgb(11.399841%,11.399841%,10.598755%);fill-opacity:1;" d="M 408.671875 0.972656 L 396.402344 0.972656 L 391.328125 27.527344 L 381.5625 1.480469 C 381.425781 1.183594 380.96875 0.972656 380.578125 0.972656 L 371.675781 0.980469 L 361.480469 54.453125 L 374.105469 54.453125 C 374.6875 54.453125 375.183594 54.03125 375.296875 53.457031 L 380.167969 27.894531 L 390.125 54.453125 L 398.9375 54.453125 C 399.515625 54.453125 400.015625 54.03125 400.121094 53.457031 L 409.855469 2.421875 C 409.917969 2.0625 409.828125 1.699219 409.597656 1.410156 C 409.371094 1.132813 409.023438 0.972656 408.671875 0.972656 "/>
<path style=" stroke:none;fill-rule:nonzero;fill:rgb(11.399841%,11.399841%,10.598755%);fill-opacity:1;" d="M 446.378906 0.972656 L 421.164063 0.980469 L 410.992188 54.453125 L 436.644531 54.453125 C 440.183594 54.453125 443.484375 53.222656 446.460938 50.820313 C 449.449219 48.414063 451.289063 45.488281 451.933594 42.128906 L 457.335938 13.757813 C 457.996094 10.304688 457.230469 7.273438 455.066406 4.75 C 452.914063 2.242188 449.992188 0.972656 446.378906 0.972656 M 443.171875 16.269531 L 438.890625 38.699219 C 438.652344 39.9375 437.972656 41 436.8125 41.949219 C 435.640625 42.894531 434.402344 43.351563 433.011719 43.351563 L 426.664063 43.351563 L 432.628906 12.074219 L 439.445313 12.074219 C 440.730469 12.074219 441.714844 12.484375 442.441406 13.316406 C 443.160156 14.148438 443.398438 15.085938 443.171875 16.269531 "/>
<g clip-path="url(#clip2)" clip-rule="nonzero">
<path style=" stroke:none;fill-rule:nonzero;fill:rgb(11.399841%,11.399841%,10.598755%);fill-opacity:1;" d="M 503.675781 1.410156 C 503.441406 1.132813 503.097656 0.972656 502.738281 0.972656 L 469.433594 0.980469 L 459.242188 54.449219 L 493.007813 54.449219 C 493.585938 54.449219 494.082031 54.03125 494.195313 53.457031 L 495.851563 44.800781 C 495.914063 44.449219 495.828125 44.078125 495.597656 43.796875 C 495.367188 43.515625 495.03125 43.351563 494.664063 43.351563 L 474.914063 43.351563 L 476.824219 33.375 L 491.089844 33.375 C 491.671875 33.375 492.167969 32.960938 492.277344 32.390625 L 493.964844 23.734375 C 494.027344 23.378906 493.9375 23.003906 493.707031 22.726563 C 493.476563 22.441406 493.140625 22.277344 492.777344 22.277344 L 478.988281 22.277344 L 480.835938 12.070313 L 501.046875 12.070313 C 501.617188 12.070313 502.125 11.660156 502.234375 11.082031 L 503.925781 2.421875 C 503.988281 2.058594 503.898438 1.699219 503.675781 1.410156 "/>
</g>
<path style=" stroke:none;fill-rule:nonzero;fill:rgb(11.399841%,11.399841%,10.598755%);fill-opacity:1;" d="M 263.527344 0.972656 L 238.296875 0.980469 L 228.101563 54.453125 L 240.65625 54.453125 C 241.234375 54.453125 241.734375 54.03125 241.84375 53.457031 L 245.734375 33.375 L 252.519531 33.375 C 253.792969 33.375 254.773438 33.789063 255.507813 34.636719 C 256.230469 35.476563 256.460938 36.414063 256.238281 37.597656 L 252.964844 54.453125 L 265.742188 54.453125 C 266.3125 54.453125 266.8125 54.03125 266.917969 53.457031 L 270.75 33.371094 C 271.121094 31.441406 270.6875 29.746094 269.46875 28.328125 C 268.800781 27.558594 268.003906 26.996094 267.085938 26.652344 C 267.953125 26.132813 268.738281 25.511719 269.433594 24.789063 C 271.871094 22.277344 273.371094 19.609375 273.894531 16.855469 L 274.484375 13.761719 C 275.148438 10.3125 274.378906 7.28125 272.21875 4.753906 C 270.070313 2.246094 267.144531 0.972656 263.527344 0.972656 M 260.234375 16.269531 L 260.015625 17.582031 C 259.773438 18.855469 259.085938 19.929688 257.921875 20.871094 C 256.738281 21.820313 255.5 22.277344 254.132813 22.277344 L 247.816406 22.277344 L 249.738281 12.074219 L 256.515625 12.074219 C 257.800781 12.074219 258.777344 12.484375 259.511719 13.316406 C 260.234375 14.144531 260.464844 15.085938 260.234375 16.269531 "/>
<path style=" stroke:none;fill-rule:nonzero;fill:rgb(11.399841%,11.399841%,10.598755%);fill-opacity:1;" d="M 277.121094 54.449219 L 304.765625 54.449219 C 305.351563 54.449219 305.847656 54.03125 305.953125 53.457031 L 307.648438 44.800781 C 307.71875 44.449219 307.625 44.078125 307.394531 43.796875 C 307.164063 43.515625 306.828125 43.351563 306.464844 43.351563 L 292.839844 43.351563 L 300.589844 2.421875 C 300.65625 2.058594 300.558594 1.699219 300.339844 1.410156 C 300.101563 1.132813 299.765625 0.972656 299.402344 0.972656 L 287.308594 0.980469 "/>
<path style=" stroke:none;fill-rule:nonzero;fill:rgb(11.399841%,11.399841%,10.598755%);fill-opacity:1;" d="M 0 0.535156 C 0 0.535156 10.023438 0.53125 12.722656 0.535156 C 14.320313 0.535156 15.023438 1.292969 15.089844 2.921875 C 15.550781 14.222656 15.476563 37.441406 15.476563 37.441406 L 27.621094 0.535156 C 27.621094 0.535156 38 0.535156 40.453125 0.535156 C 41.960938 0.535156 42.476563 0.5625 42.855469 1.03125 C 43.28125 1.5625 42.800781 2.640625 42.800781 2.640625 L 23.394531 51.449219 C 23.394531 51.449219 22.875 52.660156 22.320313 53.445313 C 21.652344 54.398438 20.792969 54.472656 19.234375 54.472656 L 3.523438 54.472656 "/>
</g>
</svg>
